<?xml version="1.0" encoding="UTF-8"?>
<svg id="Layer_2" data-name="Layer 2" xmlns="http://www.w3.org/2000/svg" viewBox="0 0 22.4 3211.12">
  <defs>
    <style>
      .cls-1 {
        fill: #a17f30;
      }

      .cls-2 {
        fill: none;
      }
    </style>
  </defs>
  <g id="Layer_1-2" data-name="Layer 1">
    <g>
      <path class="cls-1" d="M17.34,12.81V104.97c0,5.51-2.75,10.06-6.1,10.06s-6.1-4.55-6.1-10.06V.72l12.21,12.09Z"/>
      <path class="cls-1" d="M5.11,2985.71v-377.01c0-5.53,2.71-10.02,6.09-10.02s6.11,4.49,6.11,10.02v377.01c0,5.54-2.73,10.02-6.11,10.02s-6.09-4.48-6.09-10.02Z"/>
      <path class="cls-1" d="M5.11,226.34v377.03c0,5.53,2.71,10.01,6.09,10.01s6.11-4.48,6.11-10.01V226.34c0-5.54-2.73-10.02-6.11-10.02s-6.09,4.48-6.09,10.02Z"/>
      <path class="cls-1" d="M5.11,2487.58l3.04-747.39c.02-1.69,1.38-3.04,3.07-3.03,1.69,.01,3.02,1.37,3.02,3.03l3.07,747.39c.02,5.54-2.69,10.05-6.06,10.09-3.38,.04-6.11-4.4-6.13-9.94v-.16Z"/>
      <path class="cls-1" d="M5.11,724.47l3.04,747.4c.02,1.69,1.38,3.04,3.07,3.03,1.69-.01,3.02-1.37,3.02-3.03l3.07-747.4c.02-5.53-2.69-10.04-6.06-10.08-3.38-.05-6.11,4.4-6.13,9.94v.14Z"/>
      <path class="cls-1" d="M11.2,3018.6c6.18,0,11.2,12.71,11.2,28.38s-5.02,28.39-11.2,28.39-11.2-12.71-11.2-28.39,5.02-28.38,11.2-28.38Z"/>
      <path class="cls-1" d="M11.2,193.46c6.18,0,11.2-12.72,11.2-28.39s-5.02-28.39-11.2-28.39S0,149.39,0,165.07s5.02,28.39,11.2,28.39Z"/>
      <path class="cls-1" d="M11.2,2516.87c6.18,0,11.2,12.71,11.2,28.37s-5.02,28.39-11.2,28.39-11.2-12.71-11.2-28.39,5.02-28.37,11.2-28.37Z"/>
      <path class="cls-1" d="M11.2,695.18c6.18,0,11.2-12.69,11.2-28.39s-5.02-28.37-11.2-28.37-11.2,12.71-11.2,28.37,5.02,28.39,11.2,28.39Z"/>
      <polyline class="cls-2" points="4.41 0 5.13 .6 5.13 .72"/>
      <line class="cls-2" x1="19.97" y1="15.44" x2="17.34" y2="12.81"/>
      <path class="cls-1" d="M11.5,3096.69c3.35,0,6.1,4.55,6.1,10.05v92.16l-12.09,12.21h-.12v-104.37c0-5.51,2.75-10.05,6.1-10.05Z"/>
    </g>
  </g>
</svg>